<svg width="286" height="425" viewBox="0 0 286 425" fill="none" xmlns="http://www.w3.org/2000/svg">
<rect width="286" height="425" fill="white"/>
<rect x="23.5" y="333.5" width="193" height="71" fill="#67D887" stroke="#67D887"/>
<path d="M67 291H261L217 333H23L67 291Z" fill="#67A9D8" fill-opacity="0.8"/>
<path d="M79.984 370H78.256V353.008H79.984V370ZM85.8584 358.768C85.8904 359.072 85.9144 359.408 85.9304 359.776C85.9464 360.144 85.9544 360.448 85.9544 360.688H86.0024C86.3224 360.032 86.8424 359.504 87.5624 359.104C88.2824 358.688 89.0424 358.48 89.8424 358.48C91.2664 358.48 92.3304 358.904 93.0344 359.752C93.7544 360.6 94.1144 361.72 94.1144 363.112V370H92.4824V363.784C92.4824 363.192 92.4344 362.656 92.3384 362.176C92.2424 361.696 92.0744 361.288 91.8344 360.952C91.6104 360.6 91.2984 360.328 90.8984 360.136C90.5144 359.944 90.0264 359.848 89.4344 359.848C89.0024 359.848 88.5784 359.936 88.1624 360.112C87.7624 360.288 87.4024 360.56 87.0824 360.928C86.7624 361.28 86.5064 361.736 86.3144 362.296C86.1224 362.84 86.0264 363.488 86.0264 364.24V370H84.3944V361.24C84.3944 360.936 84.3864 360.544 84.3704 360.064C84.3544 359.584 84.3304 359.152 84.2984 358.768H85.8584ZM103.404 360.136H100.236V366.688C100.236 367.104 100.276 367.448 100.356 367.72C100.436 367.992 100.548 368.208 100.692 368.368C100.852 368.512 101.036 368.616 101.244 368.68C101.452 368.728 101.676 368.752 101.916 368.752C102.14 368.752 102.372 368.72 102.612 368.656C102.868 368.592 103.108 368.504 103.332 368.392L103.404 369.808C103.116 369.92 102.812 370 102.492 370.048C102.188 370.112 101.852 370.144 101.484 370.144C101.18 370.144 100.86 370.104 100.524 370.024C100.188 369.944 99.8757 369.792 99.5877 369.568C99.2997 369.344 99.0597 369.04 98.8677 368.656C98.6917 368.272 98.6037 367.768 98.6037 367.144V360.136H96.2757V358.768H98.6037V355.6H100.236V358.768H103.404V360.136ZM114.525 363.52C114.477 362.464 114.133 361.592 113.493 360.904C112.869 360.2 111.973 359.848 110.805 359.848C110.261 359.848 109.757 359.952 109.293 360.16C108.829 360.352 108.421 360.624 108.069 360.976C107.717 361.312 107.437 361.704 107.229 362.152C107.021 362.584 106.901 363.04 106.869 363.52H114.525ZM116.181 364.048C116.181 364.16 116.181 364.28 116.181 364.408C116.181 364.536 116.173 364.672 116.157 364.816H106.845C106.861 365.376 106.973 365.904 107.181 366.4C107.389 366.896 107.677 367.328 108.045 367.696C108.413 368.064 108.845 368.36 109.341 368.584C109.837 368.792 110.373 368.896 110.949 368.896C111.797 368.896 112.525 368.704 113.133 368.32C113.757 367.92 114.229 367.464 114.549 366.952L115.773 367.912C115.101 368.76 114.357 369.368 113.541 369.736C112.741 370.104 111.877 370.288 110.949 370.288C110.117 370.288 109.341 370.144 108.621 369.856C107.917 369.552 107.309 369.136 106.797 368.608C106.285 368.08 105.877 367.456 105.573 366.736C105.285 366.016 105.141 365.232 105.141 364.384C105.141 363.536 105.285 362.752 105.573 362.032C105.861 361.312 106.261 360.688 106.773 360.16C107.285 359.632 107.885 359.224 108.573 358.936C109.261 358.632 110.005 358.48 110.805 358.48C111.685 358.48 112.461 358.632 113.133 358.936C113.805 359.224 114.365 359.624 114.813 360.136C115.261 360.632 115.597 361.216 115.821 361.888C116.061 362.56 116.181 363.28 116.181 364.048ZM119.691 361.24C119.691 360.936 119.683 360.544 119.667 360.064C119.651 359.584 119.627 359.152 119.595 358.768H121.155C121.187 359.072 121.211 359.408 121.227 359.776C121.243 360.144 121.251 360.448 121.251 360.688H121.299C121.619 360.032 122.099 359.504 122.739 359.104C123.379 358.688 124.099 358.48 124.899 358.48C125.107 358.48 125.291 358.488 125.451 358.504C125.627 358.52 125.803 358.552 125.979 358.6L125.763 360.136C125.667 360.104 125.507 360.072 125.283 360.04C125.059 360.008 124.835 359.992 124.611 359.992C124.179 359.992 123.763 360.072 123.363 360.232C122.963 360.392 122.611 360.648 122.307 361C122.019 361.336 121.779 361.776 121.587 362.32C121.411 362.848 121.323 363.488 121.323 364.24V370H119.691V361.24ZM129.804 358.768C129.836 359.072 129.86 359.408 129.876 359.776C129.892 360.144 129.9 360.448 129.9 360.688H129.948C130.268 360.032 130.788 359.504 131.508 359.104C132.228 358.688 132.988 358.48 133.788 358.48C135.212 358.48 136.276 358.904 136.98 359.752C137.7 360.6 138.06 361.72 138.06 363.112V370H136.428V363.784C136.428 363.192 136.38 362.656 136.284 362.176C136.188 361.696 136.02 361.288 135.78 360.952C135.556 360.6 135.244 360.328 134.844 360.136C134.46 359.944 133.972 359.848 133.38 359.848C132.948 359.848 132.524 359.936 132.108 360.112C131.708 360.288 131.348 360.56 131.028 360.928C130.708 361.28 130.452 361.736 130.26 362.296C130.068 362.84 129.972 363.488 129.972 364.24V370H128.34V361.24C128.34 360.936 128.332 360.544 128.316 360.064C128.3 359.584 128.276 359.152 128.244 358.768H129.804ZM150.853 363.52C150.805 362.464 150.461 361.592 149.821 360.904C149.197 360.2 148.301 359.848 147.133 359.848C146.589 359.848 146.085 359.952 145.621 360.16C145.157 360.352 144.749 360.624 144.397 360.976C144.045 361.312 143.765 361.704 143.557 362.152C143.349 362.584 143.229 363.04 143.197 363.52H150.853ZM152.509 364.048C152.509 364.16 152.509 364.28 152.509 364.408C152.509 364.536 152.501 364.672 152.485 364.816H143.173C143.189 365.376 143.301 365.904 143.509 366.4C143.717 366.896 144.005 367.328 144.373 367.696C144.741 368.064 145.173 368.36 145.669 368.584C146.165 368.792 146.701 368.896 147.277 368.896C148.125 368.896 148.853 368.704 149.461 368.32C150.085 367.92 150.557 367.464 150.877 366.952L152.101 367.912C151.429 368.76 150.685 369.368 149.869 369.736C149.069 370.104 148.205 370.288 147.277 370.288C146.445 370.288 145.669 370.144 144.949 369.856C144.245 369.552 143.637 369.136 143.125 368.608C142.613 368.08 142.205 367.456 141.901 366.736C141.613 366.016 141.469 365.232 141.469 364.384C141.469 363.536 141.613 362.752 141.901 362.032C142.189 361.312 142.589 360.688 143.101 360.16C143.613 359.632 144.213 359.224 144.901 358.936C145.589 358.632 146.333 358.48 147.133 358.48C148.013 358.48 148.789 358.632 149.461 358.936C150.133 359.224 150.693 359.624 151.141 360.136C151.589 360.632 151.925 361.216 152.149 361.888C152.389 362.56 152.509 363.28 152.509 364.048ZM161.083 360.136H157.915V366.688C157.915 367.104 157.955 367.448 158.035 367.72C158.115 367.992 158.227 368.208 158.371 368.368C158.531 368.512 158.715 368.616 158.923 368.68C159.131 368.728 159.355 368.752 159.595 368.752C159.819 368.752 160.051 368.72 160.291 368.656C160.547 368.592 160.787 368.504 161.011 368.392L161.083 369.808C160.795 369.92 160.491 370 160.171 370.048C159.867 370.112 159.531 370.144 159.163 370.144C158.859 370.144 158.539 370.104 158.203 370.024C157.867 369.944 157.555 369.792 157.267 369.568C156.979 369.344 156.739 369.04 156.547 368.656C156.371 368.272 156.283 367.768 156.283 367.144V360.136H153.955V358.768H156.283V355.6H157.915V358.768H161.083V360.136Z" fill="white"/>
<path d="M115.332 394H114.48L115.98 385.504H116.832L115.332 394ZM119.097 385.504H121.365C122.197 385.504 122.841 385.684 123.297 386.044C123.753 386.404 123.981 386.904 123.981 387.544C123.981 387.96 123.901 388.324 123.741 388.636C123.581 388.948 123.357 389.212 123.069 389.428C122.789 389.636 122.449 389.792 122.049 389.896C121.657 390 121.225 390.052 120.753 390.052H119.145L118.449 394H117.597L119.097 385.504ZM119.265 389.344H120.825C121.545 389.344 122.105 389.2 122.505 388.912C122.913 388.624 123.117 388.2 123.117 387.64C123.117 387.12 122.953 386.756 122.625 386.548C122.297 386.34 121.853 386.236 121.293 386.236H119.817L119.265 389.344Z" fill="white"/>
<rect x="23.5" y="333.5" width="193" height="71" fill="#67A9D8" stroke="#67A9D8"/>
<path d="M217 333L261 291V363L217 405V333Z" fill="#67A9D8" fill-opacity="0.6"/>
<rect x="23.5" y="243.5" width="193" height="71" fill="#67D887" stroke="#67D887"/>
<path d="M67 201H261L217 243H23L67 201Z" fill="#67D887" fill-opacity="0.8"/>
<path d="M217 243L261 201V273L217 315V243Z" fill="#A4E8B7"/>
<rect x="23.5" y="153.5" width="193" height="71" fill="#F1D46B" stroke="#F1D46B"/>
<path d="M67 111H261L217 153H23L67 111Z" fill="#F1D46B" fill-opacity="0.8"/>
<path d="M217 153L261 111V183L217 225V153Z" fill="#F7E5A6"/>
<rect x="23.5" y="63.5" width="193" height="71" fill="#F17B6B" stroke="#F17B6B"/>
<path d="M67 21H261L217 63H23L67 21Z" fill="#F17B6B" fill-opacity="0.8"/>
<path d="M217 63L261 21V93L217 135V63Z" fill="#F7B0A6"/>
<path d="M59 101.8H71V103H59V101.8ZM71 101.8H83V103H71V101.8ZM83 101.8H95V103H83V101.8ZM95 101.8H107V103H95V101.8ZM107 101.8H119V103H107V101.8ZM119 101.8H131V103H119V101.8ZM131 101.8H143V103H131V101.8ZM143 101.8H155V103H143V101.8ZM155 101.8H167V103H155V101.8ZM167 101.8H179V103H167V101.8Z" fill="white"/>
<path d="M74 124.9H80V125.5H74V124.9ZM80 124.9H86V125.5H80V124.9ZM86 124.9H92V125.5H86V124.9ZM92 124.9H98V125.5H92V124.9ZM98 124.9H104V125.5H98V124.9ZM104 124.9H110V125.5H104V124.9ZM110 124.9H116V125.5H110V124.9ZM116 124.9H122V125.5H116V124.9ZM122 124.9H128V125.5H122V124.9ZM128 124.9H134V125.5H128V124.9ZM134 124.9H140V125.5H134V124.9ZM140 124.9H146V125.5H140V124.9ZM146 124.9H152V125.5H146V124.9ZM152 124.9H158V125.5H152V124.9Z" fill="white"/>
<path d="M59 191.8H71V193H59V191.8ZM71 191.8H83V193H71V191.8ZM83 191.8H95V193H83V191.8ZM95 191.8H107V193H95V191.8ZM107 191.8H119V193H107V191.8ZM119 191.8H131V193H119V191.8ZM131 191.8H143V193H131V191.8ZM143 191.8H155V193H143V191.8ZM155 191.8H167V193H155V191.8ZM167 191.8H179V193H167V191.8Z" fill="white"/>
<path d="M74 214.9H80V215.5H74V214.9ZM80 214.9H86V215.5H80V214.9ZM86 214.9H92V215.5H86V214.9ZM92 214.9H98V215.5H92V214.9ZM98 214.9H104V215.5H98V214.9ZM104 214.9H110V215.5H104V214.9ZM110 214.9H116V215.5H110V214.9ZM116 214.9H122V215.5H116V214.9ZM122 214.9H128V215.5H122V214.9ZM128 214.9H134V215.5H128V214.9ZM134 214.9H140V215.5H134V214.9ZM140 214.9H146V215.5H140V214.9ZM146 214.9H152V215.5H146V214.9ZM152 214.9H158V215.5H152V214.9Z" fill="white"/>
<path d="M59 281.8H71V283H59V281.8ZM71 281.8H83V283H71V281.8ZM83 281.8H95V283H83V281.8ZM95 281.8H107V283H95V281.8ZM107 281.8H119V283H107V281.8ZM119 281.8H131V283H119V281.8ZM131 281.8H143V283H131V281.8ZM143 281.8H155V283H143V281.8ZM155 281.8H167V283H155V281.8ZM167 281.8H179V283H167V281.8Z" fill="white"/>
<path d="M74 304.9H80V305.5H74V304.9ZM80 304.9H86V305.5H80V304.9ZM86 304.9H92V305.5H86V304.9ZM92 304.9H98V305.5H92V304.9ZM98 304.9H104V305.5H98V304.9ZM104 304.9H110V305.5H104V304.9ZM110 304.9H116V305.5H110V304.9ZM116 304.9H122V305.5H116V304.9ZM122 304.9H128V305.5H122V304.9ZM128 304.9H134V305.5H128V304.9ZM134 304.9H140V305.5H134V304.9ZM140 304.9H146V305.5H140V304.9ZM146 304.9H152V305.5H146V304.9ZM152 304.9H158V305.5H152V304.9Z" fill="white"/>
<path d="M59 371.8H71V373H59V371.8ZM71 371.8H83V373H71V371.8ZM83 371.8H95V373H83V371.8ZM95 371.8H107V373H95V371.8ZM107 371.8H119V373H107V371.8ZM119 371.8H131V373H119V371.8ZM131 371.8H143V373H131V371.8ZM143 371.8H155V373H143V371.8ZM155 371.8H167V373H155V371.8ZM167 371.8H179V373H167V371.8Z" fill="white"/>
<path d="M74 394.9H80V395.5H74V394.9ZM80 394.9H86V395.5H80V394.9ZM86 394.9H92V395.5H86V394.9ZM92 394.9H98V395.5H92V394.9ZM98 394.9H104V395.5H98V394.9ZM104 394.9H110V395.5H104V394.9ZM110 394.9H116V395.5H110V394.9ZM116 394.9H122V395.5H116V394.9ZM122 394.9H128V395.5H122V394.9ZM128 394.9H134V395.5H128V394.9ZM134 394.9H140V395.5H134V394.9ZM140 394.9H146V395.5H140V394.9ZM146 394.9H152V395.5H146V394.9ZM152 394.9H158V395.5H152V394.9Z" fill="white"/>
<path d="M114.744 97H112.776L123.72 80.008H125.4L128.928 97H127.128L126.216 92.536H117.528L114.744 97ZM118.512 90.952H125.952L124.176 81.928L118.512 90.952Z" fill="white"/>
<path d="M122.894 115.834C122.93 115.63 122.954 115.474 122.966 115.366C122.978 115.246 122.984 115.138 122.984 115.042C122.984 114.43 122.81 113.998 122.462 113.746C122.114 113.494 121.628 113.368 121.004 113.368C120.5 113.368 120.014 113.47 119.546 113.674C119.078 113.866 118.688 114.1 118.376 114.376L117.836 113.566C118.244 113.206 118.748 112.918 119.348 112.702C119.948 112.474 120.542 112.36 121.13 112.36C121.526 112.36 121.904 112.408 122.264 112.504C122.636 112.588 122.954 112.732 123.218 112.936C123.494 113.128 123.71 113.38 123.866 113.692C124.034 113.992 124.118 114.358 124.118 114.79C124.118 114.898 124.112 115.048 124.1 115.24C124.088 115.42 124.07 115.57 124.046 115.69L123.434 119.11C123.374 119.434 123.326 119.77 123.29 120.118C123.254 120.466 123.236 120.76 123.236 121H122.156C122.156 120.796 122.162 120.574 122.174 120.334C122.198 120.094 122.228 119.86 122.264 119.632H122.228C121.988 119.908 121.748 120.148 121.508 120.352C121.268 120.544 121.016 120.7 120.752 120.82C120.5 120.94 120.224 121.024 119.924 121.072C119.636 121.132 119.318 121.162 118.97 121.162C118.682 121.162 118.388 121.126 118.088 121.054C117.788 120.982 117.512 120.862 117.26 120.694C117.02 120.514 116.816 120.286 116.648 120.01C116.492 119.734 116.414 119.392 116.414 118.984C116.414 118.312 116.606 117.772 116.99 117.364C117.374 116.944 117.872 116.626 118.484 116.41C119.108 116.182 119.804 116.032 120.572 115.96C121.34 115.876 122.114 115.834 122.894 115.834ZM122.444 116.752C121.904 116.752 121.352 116.782 120.788 116.842C120.224 116.89 119.708 116.992 119.24 117.148C118.784 117.292 118.406 117.502 118.106 117.778C117.818 118.042 117.674 118.396 117.674 118.84C117.674 119.104 117.722 119.326 117.818 119.506C117.914 119.674 118.04 119.812 118.196 119.92C118.364 120.016 118.55 120.088 118.754 120.136C118.97 120.172 119.186 120.19 119.402 120.19C119.834 120.19 120.23 120.118 120.59 119.974C120.95 119.83 121.268 119.632 121.544 119.38C121.82 119.128 122.048 118.84 122.228 118.516C122.408 118.18 122.534 117.826 122.606 117.454L122.732 116.752H122.444Z" fill="white"/>
<path d="M118.16 209.578L117.908 211H116.702L119.114 197.392H120.32L119.15 203.944H119.186C119.318 203.728 119.492 203.524 119.708 203.332C119.924 203.14 120.164 202.972 120.428 202.828C120.704 202.684 120.998 202.57 121.31 202.486C121.622 202.402 121.946 202.36 122.282 202.36C122.858 202.36 123.374 202.45 123.83 202.63C124.298 202.798 124.7 203.044 125.036 203.368C125.372 203.692 125.63 204.076 125.81 204.52C125.99 204.964 126.08 205.456 126.08 205.996C126.08 206.716 125.954 207.394 125.702 208.03C125.45 208.666 125.102 209.218 124.658 209.686C124.226 210.154 123.704 210.526 123.092 210.802C122.492 211.078 121.838 211.216 121.13 211.216C120.83 211.216 120.53 211.18 120.23 211.108C119.942 211.036 119.666 210.934 119.402 210.802C119.138 210.658 118.898 210.484 118.682 210.28C118.478 210.076 118.316 209.842 118.196 209.578H118.16ZM124.82 206.068C124.82 205.696 124.76 205.348 124.64 205.024C124.532 204.688 124.364 204.4 124.136 204.16C123.908 203.908 123.632 203.716 123.308 203.584C122.984 203.44 122.606 203.368 122.174 203.368C121.646 203.368 121.154 203.476 120.698 203.692C120.242 203.908 119.846 204.208 119.51 204.592C119.174 204.964 118.91 205.402 118.718 205.906C118.526 206.398 118.43 206.92 118.43 207.472C118.43 207.868 118.49 208.234 118.61 208.57C118.742 208.894 118.928 209.182 119.168 209.434C119.408 209.674 119.69 209.86 120.014 209.992C120.35 210.124 120.728 210.19 121.148 210.19C121.7 210.19 122.198 210.082 122.642 209.866C123.098 209.65 123.488 209.356 123.812 208.984C124.136 208.612 124.382 208.18 124.55 207.688C124.73 207.184 124.82 206.644 124.82 206.068Z" fill="white"/>
<path d="M123.668 294.484C123.524 294.16 123.272 293.896 122.912 293.692C122.564 293.476 122.162 293.368 121.706 293.368C121.166 293.368 120.668 293.476 120.212 293.692C119.756 293.908 119.36 294.208 119.024 294.592C118.7 294.964 118.442 295.402 118.25 295.906C118.07 296.398 117.98 296.926 117.98 297.49C117.98 297.874 118.04 298.234 118.16 298.57C118.28 298.894 118.454 299.176 118.682 299.416C118.922 299.656 119.21 299.848 119.546 299.992C119.882 300.124 120.266 300.19 120.698 300.19C121.238 300.19 121.712 300.088 122.12 299.884C122.528 299.68 122.882 299.416 123.182 299.092L123.956 299.758C123.524 300.202 123.038 300.556 122.498 300.82C121.958 301.084 121.328 301.216 120.608 301.216C120.008 301.216 119.468 301.132 118.988 300.964C118.508 300.784 118.094 300.538 117.746 300.226C117.41 299.902 117.152 299.518 116.972 299.074C116.792 298.63 116.702 298.138 116.702 297.598C116.702 296.878 116.822 296.2 117.062 295.564C117.302 294.928 117.638 294.376 118.07 293.908C118.514 293.428 119.048 293.05 119.672 292.774C120.296 292.498 120.986 292.36 121.742 292.36C122.366 292.36 122.948 292.474 123.488 292.702C124.04 292.93 124.454 293.29 124.73 293.782L123.668 294.484Z" fill="white"/>
<path d="M116.612 388.58C116.612 387.86 116.732 387.182 116.972 386.546C117.224 385.91 117.572 385.358 118.016 384.89C118.46 384.422 118.982 384.05 119.582 383.774C120.194 383.498 120.854 383.36 121.562 383.36C122.174 383.36 122.744 383.498 123.272 383.774C123.812 384.05 124.22 384.458 124.496 384.998H124.532L125.702 378.392H126.908L124.496 392H123.29L123.542 390.614H123.506C123.23 391.046 122.816 391.424 122.264 391.748C121.712 392.06 121.094 392.216 120.41 392.216C119.834 392.216 119.312 392.132 118.844 391.964C118.388 391.784 117.992 391.532 117.656 391.208C117.32 390.884 117.062 390.5 116.882 390.056C116.702 389.612 116.612 389.12 116.612 388.58ZM117.872 388.49C117.872 388.874 117.926 389.228 118.034 389.552C118.154 389.876 118.328 390.164 118.556 390.416C118.784 390.656 119.06 390.848 119.384 390.992C119.708 391.124 120.086 391.19 120.518 391.19C121.046 391.19 121.538 391.082 121.994 390.866C122.45 390.65 122.846 390.356 123.182 389.984C123.518 389.6 123.782 389.162 123.974 388.67C124.166 388.178 124.262 387.65 124.262 387.086C124.262 386.69 124.196 386.33 124.064 386.006C123.944 385.67 123.764 385.382 123.524 385.142C123.284 384.89 122.996 384.698 122.66 384.566C122.324 384.434 121.952 384.368 121.544 384.368C120.992 384.368 120.488 384.476 120.032 384.692C119.588 384.908 119.204 385.202 118.88 385.574C118.556 385.946 118.304 386.384 118.124 386.888C117.956 387.38 117.872 387.914 117.872 388.49Z" fill="white"/>
<path d="M117.96 170.008H122.856C123.448 170.008 124.032 170.072 124.608 170.2C125.2 170.328 125.728 170.544 126.192 170.848C126.672 171.136 127.056 171.52 127.344 172C127.648 172.464 127.8 173.04 127.8 173.728C127.8 174.864 127.456 175.808 126.768 176.56C126.08 177.296 125.176 177.8 124.056 178.072V178.12C124.984 178.264 125.744 178.656 126.336 179.296C126.928 179.92 127.224 180.736 127.224 181.744C127.224 182.608 127.04 183.368 126.672 184.024C126.32 184.68 125.824 185.232 125.184 185.68C124.544 186.112 123.776 186.44 122.88 186.664C122 186.888 121.032 187 119.976 187H114.96L117.96 170.008ZM118.344 177.448H121.824C122.272 177.448 122.744 177.392 123.24 177.28C123.736 177.168 124.184 176.984 124.584 176.728C125 176.456 125.336 176.112 125.592 175.696C125.864 175.264 126 174.728 126 174.088C126 173.624 125.904 173.232 125.712 172.912C125.536 172.576 125.288 172.304 124.968 172.096C124.648 171.872 124.264 171.712 123.816 171.616C123.384 171.52 122.912 171.472 122.4 171.472H119.4L118.344 177.448ZM116.928 185.536H120.144C120.832 185.536 121.496 185.472 122.136 185.344C122.792 185.2 123.36 184.976 123.84 184.672C124.336 184.368 124.728 183.968 125.016 183.472C125.32 182.976 125.472 182.376 125.472 181.672C125.472 180.792 125.136 180.104 124.464 179.608C123.808 179.112 122.864 178.864 121.632 178.864H118.104L116.928 185.536Z" fill="white"/>
<path d="M129.816 274.312C129.48 274.744 129.088 275.152 128.64 275.536C128.192 275.904 127.68 276.232 127.104 276.52C126.544 276.792 125.92 277.008 125.232 277.168C124.56 277.344 123.824 277.432 123.024 277.432C121.888 277.432 120.848 277.256 119.904 276.904C118.976 276.552 118.176 276.056 117.504 275.416C116.832 274.776 116.312 274.008 115.944 273.112C115.576 272.216 115.392 271.224 115.392 270.136C115.392 268.664 115.656 267.288 116.184 266.008C116.712 264.728 117.432 263.616 118.344 262.672C119.272 261.712 120.352 260.96 121.584 260.416C122.816 259.856 124.136 259.576 125.544 259.576C126.168 259.576 126.768 259.64 127.344 259.768C127.936 259.896 128.48 260.08 128.976 260.32C129.472 260.544 129.912 260.824 130.296 261.16C130.696 261.496 131.016 261.872 131.256 262.288L129.696 263.32C129.568 263.048 129.376 262.776 129.12 262.504C128.88 262.232 128.584 261.992 128.232 261.784C127.88 261.56 127.472 261.384 127.008 261.256C126.56 261.128 126.056 261.064 125.496 261.064C124.28 261.064 123.16 261.32 122.136 261.832C121.128 262.328 120.256 262.992 119.52 263.824C118.8 264.64 118.232 265.584 117.816 266.656C117.416 267.728 117.216 268.832 117.216 269.968C117.216 270.8 117.344 271.584 117.6 272.32C117.856 273.04 118.232 273.672 118.728 274.216C119.24 274.744 119.856 275.168 120.576 275.488C121.312 275.792 122.16 275.944 123.12 275.944C124.144 275.944 125.12 275.744 126.048 275.344C126.976 274.928 127.808 274.28 128.544 273.4L129.816 274.312Z" fill="white"/>
<path d="M117.96 350.008H123.096C124.056 350.008 125.008 350.144 125.952 350.416C126.896 350.672 127.744 351.088 128.496 351.664C129.248 352.224 129.856 352.96 130.32 353.872C130.784 354.768 131.016 355.848 131.016 357.112C131.016 358.6 130.752 359.952 130.224 361.168C129.712 362.384 128.992 363.424 128.064 364.288C127.136 365.152 126.04 365.824 124.776 366.304C123.512 366.768 122.136 367 120.648 367H114.96L117.96 350.008ZM116.928 365.488H120.768C122.144 365.488 123.352 365.256 124.392 364.792C125.448 364.328 126.328 363.72 127.032 362.968C127.752 362.2 128.288 361.328 128.64 360.352C129.008 359.36 129.192 358.344 129.192 357.304C129.192 356.52 129.064 355.776 128.808 355.072C128.552 354.368 128.16 353.752 127.632 353.224C127.104 352.696 126.432 352.28 125.616 351.976C124.8 351.672 123.832 351.52 122.712 351.52H119.4L116.928 365.488Z" fill="white"/>
</svg>